<?xml version="1.0" encoding="UTF-8"?>
<svg width="700pt" height="700pt" version="1.1" viewBox="0 0 700 700" xmlns="http://www.w3.org/2000/svg">
 <path d="m245 0c-38.676 0-70 31.324-70 70s31.324 70 70 70 70-31.324 70-70-31.324-70-70-70zm210 70c-38.676 0-70 31.324-70 70s31.324 70 70 70 70-31.324 70-70-31.324-70-70-70zm-245 98.453v223.12c10.711-3.8164 22.609-6.5781 35-6.5781 16.695 0 32.164 3.3945 45.953 9.8359 7.8398-10.078 18.516-18.586 30.625-20.789l70-14.211c55.406-10.078 98.453-57.262 98.453-114.84v-6.5781c-10.711 3.8164-22.609 6.5781-35 6.5781-12.355 0-24.113-1.8203-35-5.4609v5.4609c0 19.426-19.949 42-41.578 45.953l-70 14.211c-10.219 1.8555-19.25 5.6367-28.453 9.8359v-145.46c-10.887 3.6406-22.645 5.4609-35 5.4609-12.391 0-24.289-2.7656-35-6.5781zm35 251.58c-38.676 0-70 31.324-70 70s31.324 70 70 70 70-31.324 70-70-31.324-70-70-70z"/>
</svg>
